{"title":"Spring, Summer, Fall, Winter and Spring BDRip x264 Kor + ukr sub","uid":9074792,"size":825251242,"categoryP":"video","categoryS":"movies","magnet":"?xt=urn:btih:91ede008e82db4ec3c7278fc91f407dd6cef4d4a&amp;dn=Spring%2C+Summer%2C+Fall%2C+Winter+and+Spring+BDRip+x264+Kor+%2B+ukr+sub&amp;tr=udp%3A%2F%2Ftracker.openbittorrent.com%3A80&amp;tr=udp%3A%2F%2Fopen.demonii.com%3A1337&amp;tr=udp%3A%2F%2Ftracker.coppersurfer.tk%3A6969&amp;tr=udp%3A%2F%2Fexodus.desync.com%3A6969","seeders":1,"leechers":0,"uploader":"orysia","files":-1,"time":1382266357,"description":" &lt;a href=&quot;http://www.imdb.com/title/tt0374546/?ref_=nv_sr_1&quot; rel=&quot;nofollow&quot; target=&quot;_NEW&quot;&gt;http://www.imdb.com/title/tt0374546/?ref_=nv_sr_1&lt;/a&gt;\n\n On an isolated lake, an old monk lives on a small floating temple. The wise master has also a young boy with him who learns to become a monk. And we watch as seasons and years pass by.\n\nDirector: Ki-duk Kim\nWriter: Ki-duk Kim\nStars: Ki-duk Kim, Yeong-su Oh, Jong-ho Kim\n\nFormat : MPEG-4\nFormat profile : Base Media\nCodec ID : isom\nFile size : 787 MiB\nDuration : 1h 45mn\nOverall bit rate : 1 047 Kbps\nMovie name : Spring, Summer, Fall, Winter... and Spring*2003 /antusyrzhuk\nGenre : Drama\nRecorded date : 2003\nWriting application : Lavf54.63.104\nComment : http://cinemasterpiece(dot)wordpress(dot)com/\nXtra : WM/EncodedBy\n\nVideo\nID : 1\nFormat : AVC\nFormat/Info : Advanced Video Codec\nFormat profile : &lt;a class=&quot;__cf_email__&quot; href=&quot;/cdn-cgi/l/email-protection&quot; data-cfemail=&quot;337b5a545b737f001d01&quot;&gt;[email&amp;#160;protected]&lt;/a&gt;&lt;script cf-hash='f9e31' type=&quot;text/javascript&quot;&gt;\n/* &lt;![CDATA[ */!function(){try{var t=&quot;currentScript&quot;in document?document.currentScript:function(){for(var t=document.getElementsByTagName(&quot;script&quot;),e=t.length;e--;)if(t[e].getAttribute(&quot;cf-hash&quot;))return t[e]}();if(t&amp;&amp;t.previousSibling){var e,r,n,i,c=t.previousSibling,a=c.getAttribute(&quot;data-cfemail&quot;);if(a){for(e=&quot;&quot;,r=parseInt(a.substr(0,2),16),n=2;a.length-n;n+=2)i=parseInt(a.substr(n,2),16)^r,e+=String.fromCharCode(i);e=document.createTextNode(e),c.parentNode.replaceChild(e,c)}}}catch(u){}}();/* ]]&gt; */&lt;/script&gt;\nFormat settings, CABAC : Yes\nFormat settings, ReFrames : 5 frames\nCodec ID : avc1\nCodec ID/Info : Advanced Video Coding\nDuration : 1h 45mn\nBit rate : 917 Kbps\nWidth : 800 pixels\nHeight : 490 pixels\nDisplay aspect ratio : 16:10\nFrame rate mode : Constant\nFrame rate : 23.976 fps\nColor space : YUV\nChroma subsampling : 4:2:0\nBit depth : 8 bits\nScan type : Progressive\nBits/(Pixel*Frame) : 0.098\nStream size : 689 MiB (88%)\nWriting library : x264 core 123 r2189 35cf912\nEncoding settings : cabac=1 // deblock=1:0:0 / analyse=0x3:0x133 / me=umh / subme=8 / psy=1 / psy_rd=1.00:0.00 // me_range=16 / chroma_me=1 / trellis=1 / 8x8dct=1 / cqm=0 / deadzone=21,11 / fast_pskip=1 / chroma_qp_offset=-2 / threads=3 / sliced_threads=0 / nr=0 / decimate=1 / interlaced=0 / bluray_compat=0 / constrained_intra=0 / bframes=3 / b_pyramid=2 / b_adapt=1 / b_bias=0 / direct=1 / weightb=1 / open_gop=0 / weightp=2 / keyint=250 / keyint_min=25 / scenecut=40 / intra_refresh=0 / rc_lookahead=50 / rc=2pass / mbtree=1 / bitrate=917 / ratetol=1.0 / qcomp=0.60 / qpmin=10 / qpmax=51 / qpstep=4 / cplxblur=20.0 / qblur=0.5 / ip_ratio=1.40 / aq=1:1.00\n\nAudio\nID : 2\nFormat : AAC\nFormat/Info : Advanced Audio Codec\nFormat profile : LC\nCodec ID : 40\nDuration : 1h 45mn\nBit rate mode : Constant\nBit rate : 123 Kbps\nChannel count : 2 channels\nChannel positions : Front: L R\nSampling rate : 48.0 KHz\nCompression mode : Lossy\nStream size : 92.1 MiB (12%)\nLanguage : Korean\n\n+ HARDCODED Ukrainian subtitles\n\nScreenshots: &lt;a href=&quot;\nhttp://img21.imageshack.us/img21/7623/dpgy.png&quot; rel=&quot;nofollow&quot; target=&quot;_NEW&quot;&gt;\nhttp://img21.imageshack.us/img21/7623/dpgy.png&lt;/a&gt; &lt;a href=&quot;\nhttp://img89.imageshack.us/img89/2835/a0cr.png&quot; rel=&quot;nofollow&quot; target=&quot;_NEW&quot;&gt;\nhttp://img89.imageshack.us/img89/2835/a0cr.png&lt;/a&gt; &lt;a href=&quot;\nhttp://img24.imageshack.us/img24/6568/v6eb.png&quot; rel=&quot;nofollow&quot; target=&quot;_NEW&quot;&gt;\nhttp://img24.imageshack.us/img24/6568/v6eb.png&lt;/a&gt; &lt;a href=&quot;\nhttp://img23.imageshack.us/img23/4770/3fgo.png&quot; rel=&quot;nofollow&quot; target=&quot;_NEW&quot;&gt;\nhttp://img23.imageshack.us/img23/4770/3fgo.png&lt;/a&gt; ","torrent":{"xt":"urn:btih:91ede008e82db4ec3c7278fc91f407dd6cef4d4a","amp;dn":"Spring%2C+Summer%2C+Fall%2C+Winter+and+Spring+BDRip+x264+Kor+%2B+ukr+sub","amp;tr":["udp%3A%2F%2Ftracker.openbittorrent.com%3A80","udp%3A%2F%2Fopen.demonii.com%3A1337","udp%3A%2F%2Ftracker.coppersurfer.tk%3A6969","udp%3A%2F%2Fexodus.desync.com%3A6969"],"infoHash":"91ede008e82db4ec3c7278fc91f407dd6cef4d4a","infoHashBuffer":{"type":"Buffer","data":[145,237,224,8,232,45,180,236,60,114,120,252,145,244,7,221,108,239,77,74]},"announce":[],"urlList":[]}}